<?xml version="1.0" standalone="no"?>
<!DOCTYPE svg PUBLIC "-//W3C//DTD SVG 20010904//EN"
 "http://www.w3.org/TR/2001/REC-SVG-20010904/DTD/svg10.dtd">
<svg version="1.0" xmlns="http://www.w3.org/2000/svg"
 width="500.000000pt" height="500.000000pt" viewBox="0 0 500.000000 500.000000"
 preserveAspectRatio="xMidYMid meet">

<g transform="translate(0.000000,500.000000) scale(0.100000,-0.100000)"
fill="#000000" stroke="none">
<path d="M965 4306 c-115 -37 -198 -108 -248 -214 l-32 -67 0 -1055 0 -1055
31 -65 c39 -83 111 -155 194 -194 l65 -31 700 -5 700 -5 3 -449 c2 -401 4
-452 19 -468 15 -17 46 -18 537 -18 287 0 526 4 532 8 29 19 34 56 34 261 l0
211 163 0 c89 0 167 4 173 8 29 19 34 56 34 250 l0 200 78 4 c145 7 272 93
336 228 l31 65 0 1055 0 1055 -32 67 c-40 85 -106 151 -191 191 l-67 32 -1510
2 c-1200 1 -1518 -1 -1550 -11z m3049 -132 c28 -10 66 -35 95 -63 86 -84 81
-10 81 -1141 0 -1102 3 -1048 -64 -1126 -45 -53 -114 -85 -191 -92 l-63 -5 -4
254 c-5 278 -10 308 -71 424 -45 85 -155 192 -240 233 -122 59 -149 62 -602
62 -240 0 -428 -5 -454 -11 -106 -24 -148 -55 -349 -256 -106 -106 -196 -193
-200 -193 -4 0 -96 89 -204 197 l-198 198 0 405 c0 351 -2 409 -16 428 -18 27
-69 30 -96 5 -17 -15 -18 -41 -18 -402 l0 -386 -139 -140 c-88 -88 -142 -150
-147 -168 -6 -27 12 -47 302 -338 l309 -309 -351 0 c-411 0 -428 3 -504 79
-86 86 -81 10 -78 1157 3 982 4 1010 23 1049 27 55 97 120 148 138 37 13 232
16 1513 16 1327 1 1475 -1 1518 -15z m-595 -1603 c125 -39 218 -120 274 -239
l32 -67 3 -487 3 -488 -116 0 -115 0 0 391 c0 387 -3 420 -34 441 -21 15 -63
8 -82 -13 -18 -20 -19 -48 -22 -660 l-2 -639 -425 0 -425 0 0 672 c0 744 3
708 -64 708 -27 0 -54 -23 -206 -176 -106 -107 -191 -183 -215 -195 -48 -22
-94 -24 -138 -5 -18 8 -158 140 -312 295 l-280 281 82 82 83 83 233 -233 c172
-172 239 -232 257 -232 17 0 84 60 254 229 202 199 238 231 286 249 52 20 74
21 462 21 371 1 412 -1 467 -18z m-1039 -716 l0 -105 -107 0 -108 0 105 105
c58 58 106 105 107 105 2 0 3 -47 3 -105z"/>
<path d="M2822 3672 c-205 -73 -323 -292 -268 -497 20 -77 53 -133 110 -191
222 -222 593 -128 691 175 27 84 18 207 -23 294 -40 86 -114 160 -202 201 -56
26 -79 31 -160 33 -73 3 -107 -1 -148 -15z m253 -136 c104 -48 174 -169 162
-281 -26 -250 -325 -348 -492 -163 -117 131 -93 314 57 427 61 46 194 54 273
17z"/>
</g>
</svg>
